<?xml version="1.0" encoding="UTF-8" standalone="no"?>
<svg
   xmlns:dc="http://purl.org/dc/elements/1.1/"
   xmlns:cc="http://creativecommons.org/ns#"
   xmlns:rdf="http://www.w3.org/1999/02/22-rdf-syntax-ns#"
   xmlns:svg="http://www.w3.org/2000/svg"
   xmlns="http://www.w3.org/2000/svg"
   xmlns:sodipodi="http://sodipodi.sourceforge.net/DTD/sodipodi-0.dtd"
   xmlns:inkscape="http://www.inkscape.org/namespaces/inkscape"
   viewBox="0 0 24 24"
   version="1.1"
   id="svg7"
   sodipodi:docname="media.svg"
   inkscape:version="0.92.3 (d244b95, 2018-08-02)">
  <metadata
     id="metadata13">
    <rdf:RDF>
      <cc:Work
         rdf:about="">
        <dc:format>image/svg+xml</dc:format>
        <dc:type
           rdf:resource="http://purl.org/dc/dcmitype/StillImage" />
      </cc:Work>
    </rdf:RDF>
  </metadata>
  <defs
     id="defs11">
    <filter
       style="color-interpolation-filters:sRGB;"
       inkscape:label="Colorize"
       id="filter29">
      <feComposite
         in2="SourceGraphic"
         operator="arithmetic"
         k1="0"
         k2="1"
         result="composite1"
         id="feComposite15" />
      <feColorMatrix
         in="composite1"
         values="1"
         type="saturate"
         result="colormatrix1"
         id="feColorMatrix17" />
      <feFlood
         flood-opacity="1"
         flood-color="rgb(129,0,158)"
         result="flood1"
         id="feFlood19" />
      <feBlend
         in="flood1"
         in2="colormatrix1"
         mode="multiply"
         result="blend1"
         id="feBlend21" />
      <feBlend
         in2="blend1"
         mode="screen"
         result="blend2"
         id="feBlend23" />
      <feColorMatrix
         in="blend2"
         values="1"
         type="saturate"
         result="colormatrix2"
         id="feColorMatrix25" />
      <feComposite
         in="colormatrix2"
         in2="SourceGraphic"
         operator="in"
         k2="1"
         result="composite2"
         id="feComposite27" />
    </filter>
  </defs>
  <sodipodi:namedview
     pagecolor="#ffffff"
     bordercolor="#666666"
     borderopacity="1"
     objecttolerance="10"
     gridtolerance="10"
     guidetolerance="10"
     inkscape:pageopacity="0"
     inkscape:pageshadow="2"
     inkscape:window-width="876"
     inkscape:window-height="491"
     id="namedview9"
     showgrid="false"
     inkscape:zoom="9.8333333"
     inkscape:cx="12"
     inkscape:cy="12"
     inkscape:window-x="1318"
     inkscape:window-y="807"
     inkscape:window-maximized="0"
     inkscape:current-layer="svg7" />
  <title
     id="title2" />
  <g
     id="Git"
     style="filter:url(#filter29)">
    <path
       d="M23.56,10.93,13.06.43a1.54,1.54,0,0,0-2.12,0l-2,2a.5.5,0,0,0,0,.71L10.74,5a.5.5,0,0,0,.54.11A2,2,0,0,1,14,7a2,2,0,0,1-.15.74.5.5,0,0,0,.11.54L15.72,10a.5.5,0,0,0,.54.11A2,2,0,1,1,15,12a2,2,0,0,1,.14-.71.5.5,0,0,0-.11-.53L13.35,9.07a.5.5,0,0,0-.85.35v5.28a.5.5,0,0,0,.3.46,2,2,0,1,1-1.6,0,.5.5,0,0,0,.3-.46V9.28a.5.5,0,0,0-.3-.46,2,2,0,0,1-1.06-2.56A.5.5,0,0,0,10,5.73L8.19,3.88a.5.5,0,0,0-.71,0l-7,7a1.5,1.5,0,0,0,0,2.12l10.5,10.51a1.5,1.5,0,0,0,2.12,0l10.5-10.51a1.5,1.5,0,0,0,0-2.12Z"
       style="fill:#303c42"
       id="path4" />
  </g>
</svg>
